# xmcd
#
# Track frame offsets:
#  150
#  20221
#  56608
#  85958
#  122726
#  147008
#  178480
#  210994
#  244893
#  267864
#
# Disc length: 3947 seconds
#
# Revision: 0
# Processed by: cddbd v1.5.2PL0 Copyright (c) Steve Scherf et al.
# Submitted via: Collectorz.com_Music_Collector 6.11
#
DISCID=920f690a
DTITLE=Eric Clapton - Beetle-Clasher (2CDs) [CD1)
DYEAR=1997
DGENRE=Blues
TTITLE0=Opening-SE/Crossroads
TTITLE1=White Room
TTITLE2=I Shot The Sheriff
TTITLE3=Bell Bottom Blues
TTITLE4=Lay Down Sally
TTITLE5=Wonderful Tonight
TTITLE6=Wanna Make Love To You
TTITLE7=After Midnight
TTITLE8=Can't Find My Way Home
TTITLE9=Forever Man
EXTD=
EXTT0=
EXTT1=
EXTT2=
EXTT3=
EXTT4=
EXTT5=
EXTT6=
EXTT7=
EXTT8=
EXTT9=
PLAYORDER=
